<?xml version="1.0"?>
<svg width="7" height="7" xmlns="http://www.w3.org/2000/svg">
    <g transform="rotate(45,3.5,3.5)">
        <g fill="yellow">
            <rect x="3" y="0" width="1" height="1" />
            <rect x="2" y="1" width="1" height="1" />
            <rect x="4" y="1" width="1" height="1" />
            <rect x="1" y="2" width="1" height="1" />
            <rect x="5" y="2" width="1" height="1" />
            <rect x="0" y="3" width="1" height="1" />
            <rect x="0" y="3" width="1" height="1" />
            <rect x="6" y="3" width="1" height="1" />
            <rect x="1" y="4" width="1" height="1" />
            <rect x="2" y="5" width="1" height="1" />
            <rect x="3" y="6" width="1" height="1" />
            <rect x="4" y="5" width="1" height="1" />
            <rect x="5" y="4" width="1" height="1" />
        </g>
        <g fill="#ffff99">
            <rect x="2" y="2" width="3" height="3" />
            <rect x="1" y="3" width="1" height="1" />
            <rect x="5" y="3" width="1" height="1" />
            <rect x="3" y="1" width="1" height="1" />
            <rect x="3" y="5" width="1" height="1" />
        </g>
    </g>
</svg>
